<svg width="20" height="20" viewBox="0 0 20 20" fill="none" xmlns="http://www.w3.org/2000/svg">
<path d="M9.83339 8.58333C7.94172 8.09167 7.33339 7.58333 7.33339 6.79167C7.33339 5.88333 8.17506 5.25 9.58339 5.25C11.0667 5.25 11.6167 5.95833 11.6667 7H13.5084C13.4501 5.56667 12.5751 4.25 10.8334 3.825V2H8.33339V3.8C6.71672 4.15 5.41672 5.2 5.41672 6.80833C5.41672 8.73333 7.00839 9.69167 9.33339 10.25C11.4167 10.75 11.8334 11.4833 11.8334 12.2583C11.8334 12.8333 11.4251 13.75 9.58339 13.75C7.86672 13.75 7.19172 12.9833 7.10006 12H5.26672C5.36672 13.825 6.73339 14.85 8.33339 15.1917V17H10.8334V15.2083C12.4584 14.9 13.7501 13.9583 13.7501 12.25C13.7501 9.88333 11.7251 9.075 9.83339 8.58333Z" fill="white"/>
</svg>
