<svg width="20" height="20" viewBox="0 0 20 20" fill="none" xmlns="http://www.w3.org/2000/svg">
<path d="M10 1.66663C5.85833 1.66663 2.5 5.02496 2.5 9.16663C2.5 12.6416 4.86667 15.5583 8.075 16.4083L10 18.3333L11.925 16.4083C15.1333 15.5583 17.5 12.6416 17.5 9.16663C17.5 5.02496 14.1417 1.66663 10 1.66663ZM10 3.33329C11.3833 3.33329 12.5 4.44996 12.5 5.83329C12.5 7.21663 11.3833 8.33329 10 8.33329C8.61667 8.33329 7.5 7.21663 7.5 5.83329C7.5 4.44996 8.61667 3.33329 10 3.33329ZM10 15.25C7.91667 15.25 6.075 14.1833 5 12.5666C5.025 10.9083 8.33333 9.99996 10 9.99996C11.6583 9.99996 14.975 10.9083 15 12.5666C13.925 14.1833 12.0833 15.25 10 15.25Z" fill="#ACACAC"/>
</svg>
