<svg width="20" height="20" viewBox="0 0 20 20" fill="none" xmlns="http://www.w3.org/2000/svg">
<path d="M19.1666 6.66667C19.1666 7.58333 18.4166 8.33333 17.4999 8.33333C17.3499 8.33333 17.2083 8.31667 17.0749 8.275L14.1083 11.2333C14.1499 11.3667 14.1666 11.5167 14.1666 11.6667C14.1666 12.5833 13.4166 13.3333 12.4999 13.3333C11.5833 13.3333 10.8333 12.5833 10.8333 11.6667C10.8333 11.5167 10.8499 11.3667 10.8916 11.2333L8.76658 9.10833C8.63325 9.15 8.48325 9.16667 8.33325 9.16667C8.18325 9.16667 8.03325 9.15 7.89992 9.10833L4.10825 12.9083C4.14992 13.0417 4.16658 13.1833 4.16658 13.3333C4.16658 14.25 3.41658 15 2.49992 15C1.58325 15 0.833252 14.25 0.833252 13.3333C0.833252 12.4167 1.58325 11.6667 2.49992 11.6667C2.64992 11.6667 2.79159 11.6833 2.92492 11.725L6.72492 7.93333C6.68325 7.8 6.66658 7.65 6.66658 7.5C6.66658 6.58333 7.41658 5.83333 8.33325 5.83333C9.24992 5.83333 9.99992 6.58333 9.99992 7.5C9.99992 7.65 9.98325 7.8 9.94158 7.93333L12.0666 10.0583C12.1999 10.0167 12.3499 10 12.4999 10C12.6499 10 12.7999 10.0167 12.9333 10.0583L15.8916 7.09167C15.8499 6.95833 15.8333 6.81667 15.8333 6.66667C15.8333 5.75 16.5833 5 17.4999 5C18.4166 5 19.1666 5.75 19.1666 6.66667Z" fill="white"/>
</svg>
